<?xml version="1.0" encoding="UTF-8"?>
<!DOCTYPE svg PUBLIC "-//W3C//DTD SVG 1.1//EN" "http://www.w3.org/Graphics/SVG/1.1/DTD/svg11.dtd">
<!-- Creator: CorelDRAW 2019 (64-Bit) -->
<svg xmlns="http://www.w3.org/2000/svg" xml:space="preserve" width="210mm" height="297mm" version="1.1" style="shape-rendering:geometricPrecision; text-rendering:geometricPrecision; image-rendering:optimizeQuality; fill-rule:evenodd; clip-rule:evenodd"
viewBox="0 0 21000 29700"
 xmlns:xlink="http://www.w3.org/1999/xlink">
 <defs>
  <style type="text/css">
   <![CDATA[
    .fil3 {fill:#0ABDE3}
    .fil0 {fill:#263238}
    .fil15 {fill:#ED893E}
    .fil12 {fill:#FAB27B}
    .fil17 {fill:#FEFEFE}
    .fil6 {fill:white}
    .fil14 {fill:black;fill-opacity:0.101961}
    .fil7 {fill:white;fill-opacity:0.101961}
    .fil8 {fill:black;fill-opacity:0.200000}
    .fil1 {fill:white;fill-opacity:0.200000}
    .fil2 {fill:black;fill-opacity:0.301961}
    .fil16 {fill:white;fill-opacity:0.301961}
    .fil13 {fill:black;fill-opacity:0.400000}
    .fil10 {fill:white;fill-opacity:0.400000}
    .fil5 {fill:white;fill-opacity:0.501961}
    .fil4 {fill:white;fill-opacity:0.600000}
    .fil11 {fill:white;fill-opacity:0.701961}
    .fil9 {fill:white;fill-opacity:0.800000}
   ]]>
  </style>
 </defs>
 <g id="Layer_x0020_1">
  <metadata id="CorelCorpID_0Corel-Layer"/>
  <g id="_2533785962816">
   <path class="fil0" d="M7553.49 20193.41l-8.4 96.6c-0.16,2.42 -0.26,4.88 -0.26,7.33 0,9.46 1.38,18.87 4.06,27.93l-0.02 0.02c1.55,5.3 3.81,10.4 6.73,15.11 3.08,4.66 6.46,9.17 10.08,13.44 3.69,4.29 7.95,8.12 12.6,11.34 14.21,10.11 31.23,15.54 48.67,15.54 0.01,0 0.03,0 0.04,0l3460.8 0.01c0.03,-0.01 0.06,-0.01 0.09,-0.01 8.23,0 16.44,-1.29 24.27,-3.78 5.47,-1.66 10.84,-3.77 15.96,-6.3 18.27,-8.93 33.07,-23.73 42,-42 5.33,-10.16 8.63,-21.33 9.66,-32.76l7.98 -92.82c0.33,-2.78 0.5,-5.61 0.5,-8.42 0,-8.3 -1.46,-16.55 -4.28,-24.35 -1.58,-4.82 -3.7,-9.47 -6.3,-13.84 -6.52,-10.99 -15.79,-20.12 -26.88,-26.46 -4.72,-2.57 -9.67,-4.85 -14.7,-6.73 -7.7,-2.5 -15.77,-3.78 -23.87,-3.78 -0.02,0 -0.05,0 -0.07,0l-861.84 0.01c-0.56,-0.02 -1.21,0 -1.79,0 -10.25,0 -20.5,-0.99 -30.55,-2.94l0 0 -12.18 -3.36 0 0c-4.58,-1.31 -9.1,-3.01 -13.43,-5.05 -4.2,-1.33 -8.18,-3.31 -11.76,-5.87 -6.03,-3.13 -11.82,-6.82 -17.22,-10.92 -6.5,-5.18 -12.57,-10.97 -18.06,-17.22 -2.94,-3.78 -5.88,-7.14 -8.82,-11.34l-5.88 -8.4 -2.1 -3.36 0 0c-2.52,-3.85 -4.63,-7.93 -6.3,-12.19l-5.04 -11.34c0.09,-0.41 0.14,-0.84 0.14,-1.26 0,-0.42 -0.05,-0.85 -0.14,-1.26 0.13,-0.48 0.19,-0.97 0.19,-1.47 0,-0.5 -0.06,-0.99 -0.19,-1.47 -0.13,-0.48 0,0 0,0 -1.23,-3.24 -2.08,-6.64 -2.51,-10.08 -0.23,-2.35 -0.34,-4.76 -0.34,-7.14 0,-2.37 0.11,-4.79 0.32,-7.14 0,-4.2 0,-8.82 0,-13.44 0,-4.62 0,-8.82 0,-13.44l0 -5.45c-0.1,-2.23 -0.16,-4.5 -0.16,-6.73 0,-2.23 0.06,-4.5 0.18,-6.71 0,-5.04 2.1,-9.24 2.94,-13.86l-0.02 0 338.52 -1298.64 65.1 -249.48 50.82 -195.3 -1965.6 0 -105.42 195.3 -134.4 249.48 -764.4 1417.08c-2.52,5.04 -5.04,10.08 -7.98,15.12l-7.56 17.22c-2.1,5.88 -4.62,11.34 -6.72,17.64l-3.78 11.76c-10.25,24.09 -17.93,49.38 -22.66,75.15l-0.02 0.03z"/>
   <path class="fil1" d="M11186.49 20203.91l-7.98 93.66c-4.48,46.99 -43.53,83.15 -90.72,84l-3459.96 0c-0.08,-0.01 -0.18,-0.01 -0.26,-0.01 -46.38,0 -84,-37.62 -84,-84 0,-2.24 0.09,-4.49 0.27,-6.72l8.4 -96.6c2.15,-25.77 7.29,-51.36 15.12,-76.01 7.08,-21.57 16.17,-42.57 26.89,-62.58l1004.64 -1861.86 1965.58 0 -454.44 1743.42c-2.97,9.95 -4.83,20.28 -5.45,30.65 -0.3,3.9 -0.49,7.88 -0.49,11.8 0,67.03 47.02,124.87 112.63,138.55 9.73,2.26 19.71,3.4 29.69,3.4 0.87,0 1.79,-0.02 2.64,-0.03l860.58 0.01c0.66,-0.02 1.35,-0.04 2.02,-0.04 41.51,0 75.18,33.67 75.18,75.18 0,2.39 -0.12,4.8 -0.34,7.17l0 0.01z"/>
   <path class="fil0" d="M7483.77 20054.81l1004.22 -1862.28 111.3 0 -1004.64 1862.28c-23.25,42.8 -37.56,90.04 -41.97,138.59l-8.4 96.6c-0.33,2.95 -0.5,5.92 -0.5,8.88 0,44.99 36.49,81.48 81.48,81.48 0.99,0 2.02,-0.03 3,-0.06l-111.31 0.01c-0.97,0.02 -2,0.05 -2.99,0.05 -44.99,0 -81.48,-36.49 -81.48,-81.48 0,-2.96 0.17,-5.93 0.49,-8.87l8.4 -96.6c4.34,-48.6 18.82,-95.91 42.41,-138.62l-0.01 0.02z"/>
   <polygon class="fil2" points="8600.13,18192.53 10565.31,18192.53 10449.39,18637.73 8359.89,18637.73 "/>
   <path class="fil0" d="M5265.33 12022.31l0 6059.34c0.01,0.11 0.01,0.3 0.01,0.41 0,169.07 137.11,306.18 306.18,306.18 0,0 0,0 0,0l8386.13 0.01c0,-0.01 0,-0.01 0,-0.01 169.07,0 306.18,-137.11 306.18,-306.18 0,-0.11 0,-0.3 0,-0.41l0 -6059.34c0,-0.12 0,-0.31 0,-0.42 0,-169.07 -137.11,-306.18 -306.18,-306.18 -0.11,0 -0.3,0 -0.41,0l-8384.89 0c-67.42,0.04 -133.03,22.38 -186.49,63.41 -7.47,5.54 -14.68,11.65 -21.41,18.08 -20.64,18.71 -38.52,40.39 -52.92,64.23 -10.09,15.72 -18.58,32.53 -25.19,50 -13.63,35.33 -20.78,72.97 -21.01,110.88z"/>
   <path class="fil3" d="M14263.83 17426.45l0 655.2c0,169.29 -137.3,306.59 -306.6,306.59l-8384.88 0.01c-169.29,-0.01 -306.59,-137.31 -306.59,-306.61l0 -655.2 8998.07 0.01z"/>
   <path class="fil4" d="M14263.83 17426.45l0 655.2c0,169.29 -137.3,306.59 -306.6,306.59l-8384.88 0.01c-169.29,-0.01 -306.59,-137.31 -306.59,-306.61l0 -655.2 8998.07 0.01z"/>
   <path class="fil3" d="M5577.81 17241.23l8373.96 0c92.77,-0.01 168,-75.24 168,-168.01l0 -5003.87c0,-92.77 -75.23,-168 -168,-168l-8373.96 0c-92.76,0 -167.99,75.23 -167.99,168l-0.01 5005.56c0.9,92.1 75.89,166.31 168,166.31 0,0 0,0 0,0l0 0.01z"/>
   <path class="fil0" d="M5386.71 11715.71l185.64 0c-169.29,0 -306.59,137.3 -306.59,306.6l-0.01 6059.34c0.01,169.29 137.31,306.59 306.61,306.59l-185.65 0.01c-169.29,-0.01 -306.59,-137.31 -306.59,-306.61l-0.01 -6059.33c0.01,-169.3 137.31,-306.6 306.61,-306.6l-0.01 0z"/>
   <path class="fil1" d="M5386.71 11715.71l185.64 0c-169.29,0 -306.59,137.3 -306.59,306.6l-0.01 6059.34c0.01,169.29 137.31,306.59 306.61,306.59l-185.65 0.01c-169.29,-0.01 -306.59,-137.31 -306.59,-306.61l-0.01 -6059.33c0.01,-169.3 137.31,-306.6 306.61,-306.6l-0.01 0z"/>
   <path class="fil5" d="M14169.33 15089.99c-215.88,-42 -557.76,97.86 -621.6,307.86 1.35,-12.4 2.09,-24.95 2.09,-37.42 0,-118.26 -62.27,-227.91 -163.8,-288.5 -111.3,-64.26 -257.04,-109.62 -359.52,-32.34 20.06,-85.53 30.37,-173.61 30.37,-261.55 0,-338.8 -150.66,-660.18 -410.86,-877.04 -328.44,-265.86 -807.66,-294 -1186.92,-108.78 60.28,-115.97 91.86,-244.89 91.86,-375.6 0,-354.78 -229.93,-668.73 -568.12,-775.7 -365.95,-127.15 -751.74,-192.72 -1139.65,-192.72 -168.79,0 -338,12.27 -504.67,36.8 -319.62,47.04 -645.54,147 -877.8,371.28 -232.26,224.28 -294,630 -137.76,912.66 -102.77,-32.96 -210.63,-50.05 -318.75,-50.05 -271.94,0 -533.24,106.97 -727.06,297.63 -182.44,190.52 -284.32,444.29 -284.32,708.06 0,113.88 19.13,227.27 56.25,334.78 -53.34,-31.67 -114.36,-48.47 -176.44,-48.47 -53.13,0 -105.67,12.28 -153.27,35.83 -103.38,52.43 -172.5,154.61 -182.68,270.08 -131.19,-173.14 -336.05,-275.02 -553.37,-275.02 -234.02,0 -452.36,117.98 -580.6,313.61l0 1885.8 8717.06 0.04 49.56 -2151.24z"/>
   <path class="fil6" d="M7736.19 14262.17l4490.64 0c228.44,-0.01 413.7,185.25 413.7,413.69l0 0.01c0,228.43 -185.26,413.69 -413.7,413.69l-4490.64 0.01c-228.43,-0.01 -413.69,-185.27 -413.69,-413.71l-0.01 0.01c0.01,-228.45 185.27,-413.71 413.71,-413.71l-0.01 0.01z"/>
   <path class="fil0" d="M7710.57 14834.21c-134.97,-0.01 -244.43,-109.47 -244.43,-244.45 0,-134.98 109.46,-244.44 244.44,-244.44 134.98,0 244.44,109.46 244.44,244.44 -0.21,134.88 -109.56,244.23 -244.44,244.44l-0.01 0.01zm244.44 -607.32c-65.39,-0.01 -118.43,53.03 -118.43,118.43 0,65.4 53.04,118.44 118.44,118.44 65.4,0 118.44,-53.04 118.44,-118.44 -26.82,-77.27 -99.65,-129.07 -181.44,-129.07 -106.06,0 -192.07,86.01 -192.07,192.07 0,21.43 3.61,42.77 10.62,63.01l244.44 -244.44z"/>
   <rect class="fil0" transform="matrix(0.7076 -0.706613 0.706613 0.7076 7790.6 14765.6)" width="126" height="409.5"/>
   <polygon class="fil7" points="11283.51,11900.93 11605.23,11900.93 12273.45,17241.23 11951.31,17241.23 "/>
   <polygon class="fil7" points="12598.95,17241.23 11931.15,11900.93 13141.17,11900.93 13808.97,17241.23 "/>
   <path class="fil1" d="M8150.31 20204.75l-7.56 88.62c-0.32,2.91 -0.49,5.88 -0.49,8.82 0,43.37 35.17,78.54 78.54,78.54 0.44,0 0.91,-0.01 1.34,-0.01l2865.65 0.01c47.19,-0.85 86.24,-37.01 90.72,-84l7.98 -92.82c0.39,-3.07 0.58,-6.18 0.58,-9.27 0,-41.28 -33.48,-74.76 -74.76,-74.76 -0.61,0 -1.23,0.01 -1.83,0.02l-860.59 0.01c-0.14,-0.01 -0.31,-0.01 -0.46,-0.01 -10.6,0 -21.16,-1.28 -31.45,-3.78l-1974.01 0.01c-49.07,1.69 -89.23,39.7 -93.65,88.61l-0.01 0.01z"/>
   <path class="fil8" d="M7567.77 20117.39l2650.2 0c-65.34,-13.29 -112.3,-70.78 -112.3,-137.47 0,-4.3 0.21,-8.63 0.6,-12.9l-2454.5 0.01 -84 150.36z"/>
   <path class="fil9" d="M7988.61 15632.63l1772.4 0c89.3,-0.01 161.71,72.4 161.71,161.69l-0.01 374.65c0.01,89.28 -72.4,161.69 -161.69,161.69l-1772.41 0.01c-89.28,-0.01 -161.69,-72.42 -161.69,-161.71l-0.01 -374.63c0.01,-89.3 72.42,-161.71 161.71,-161.71l-0.01 0.01z"/>
   <path class="fil9" d="M10559.01 15632.63l1772.4 0c89.29,-0.01 161.7,72.4 161.7,161.69l0 374.65c0,89.28 -72.41,161.69 -161.7,161.69l-1772.4 0.01c-89.28,-0.01 -161.69,-72.42 -161.69,-161.71l-0.01 -374.63c0.01,-89.3 72.42,-161.71 161.7,-161.71l0 0.01z"/>
   <path class="fil3" d="M8824.41 12139.07l1041.18 -1848c7.47,-13.15 21.43,-21.29 36.55,-21.29 15.12,0 29.08,8.14 36.54,21.29l1041.18 1848c3.38,6.18 5.15,13.11 5.15,20.16 0,23.07 -18.62,41.84 -41.7,42l-2081.94 0c-0.02,0 -0.06,0 -0.1,0 -23.19,0 -42,-18.81 -42,-42 0,-7.05 1.77,-13.98 5.15,-20.16l-0.01 0z"/>
   <path class="fil2" d="M8824.41 12139.07l1041.18 -1848c7.47,-13.15 21.43,-21.29 36.55,-21.29 15.12,0 29.08,8.14 36.54,21.29l1041.18 1848c3.38,6.18 5.15,13.11 5.15,20.16 0,23.07 -18.62,41.84 -41.7,42l-2081.94 0c-0.02,0 -0.06,0 -0.1,0 -23.19,0 -42,-18.81 -42,-42 0,-7.05 1.77,-13.98 5.15,-20.16l-0.01 0z"/>
   <path class="fil0" d="M9407.37 12478.01l-50.82 -207.48 -182.28 0 -50.4 207.48c44.93,18.6 93.14,28.19 141.76,28.19 48.62,0 96.83,-9.59 141.74,-28.18l0 -0.01z"/>
   <path class="fil1" d="M9174.27 12270.53l-11.76 48.3c33.4,9.82 68.11,14.81 102.91,14.81 34.8,0 69.51,-4.99 102.89,-14.79l-11.76 -48.3 -182.28 -0.02z"/>
   <path class="fil10" d="M9149.91 12370.91c-3.36,13.44 -6.72,26.46 -9.66,39.06 40.74,12.79 83.3,19.35 126.01,19.35 42.71,0 85.27,-6.56 125.98,-19.33l-9.24 -39.06c-38.28,7.7 -77.41,11.65 -116.53,11.65 -39.12,0 -78.25,-3.95 -116.58,-11.7l0.02 0.03z"/>
   <path class="fil3" d="M9457.77 12255.83c-60.92,25.17 -126.39,38.15 -192.35,38.15 -65.96,0 -131.43,-12.98 -192.35,-38.15l0 -1541.4c-0.01,-0.22 -0.01,-0.7 -0.01,-0.94 0,-173.87 69.31,-340.78 192.33,-463.57 123.08,122.79 192.39,289.7 192.39,463.57 0,0.24 0,0.72 0,0.96l-0.01 1541.38z"/>
   <path class="fil3" d="M9073.05 10714.43l0 1452.78c61.73,21.55 126.94,32.6 192.37,32.6 65.43,0 130.64,-11.05 192.37,-32.57l-0.02 -1452.81c0.01,-0.22 0.01,-0.7 0.01,-0.94 0,-173.87 -69.31,-340.78 -192.33,-463.57 -123.08,122.79 -192.39,289.7 -192.39,463.57 0,0.24 0,0.72 0,0.96l-0.01 -0.02z"/>
   <path class="fil10" d="M9073.05 10714.43l0 1452.78c61.73,21.55 126.94,32.6 192.37,32.6 65.43,0 130.64,-11.05 192.37,-32.57l-0.02 -1452.81c0.01,-0.22 0.01,-0.7 0.01,-0.94 0,-173.87 -69.31,-340.78 -192.33,-463.57 -123.08,122.79 -192.39,289.7 -192.39,463.57 0,0.24 0,0.72 0,0.96l-0.01 -0.02z"/>
   <path class="fil3" d="M9073.05 10714.43l0 1092c62.53,17.88 127.32,26.94 192.37,26.94 65.05,0 129.84,-9.06 192.32,-26.93l0 -1092c0.04,-0.23 0.04,-0.71 0.04,-0.95 0,-173.87 -69.31,-340.78 -192.33,-463.57 -123.08,122.79 -192.39,289.7 -192.39,463.57 0,0.24 0,0.72 0,0.96l-0.01 -0.02z"/>
   <path class="fil4" d="M9073.05 10714.43l0 1092c62.53,17.88 127.32,26.94 192.37,26.94 65.05,0 129.84,-9.06 192.32,-26.93l0 -1092c0.04,-0.23 0.04,-0.71 0.04,-0.95 0,-173.87 -69.31,-340.78 -192.33,-463.57 -123.08,122.79 -192.39,289.7 -192.39,463.57 0,0.24 0,0.72 0,0.96l-0.01 -0.02z"/>
   <path class="fil3" d="M9073.05 10714.43l0 571.2c62.47,17.92 127.33,27.1 192.37,27.1 65.04,0 129.9,-9.18 192.39,-27.12l-0.04 -571.18c0.01,-0.22 0.01,-0.7 0.01,-0.94 0,-173.87 -69.31,-340.78 -192.33,-463.57 -123.08,122.79 -192.39,289.7 -192.39,463.57 0,0.24 0,0.72 0,0.96l-0.01 -0.02z"/>
   <path class="fil9" d="M9073.05 10714.43l0 571.2c62.47,17.92 127.33,27.1 192.37,27.1 65.04,0 129.9,-9.18 192.39,-27.12l-0.04 -571.18c0.01,-0.22 0.01,-0.7 0.01,-0.94 0,-173.87 -69.31,-340.78 -192.33,-463.57 -123.08,122.79 -192.39,289.7 -192.39,463.57 0,0.24 0,0.72 0,0.96l-0.01 -0.02z"/>
   <path class="fil3" d="M9073.05 10714.43l0 66.78c62.53,17.88 127.32,26.94 192.37,26.94 65.05,0 129.84,-9.06 192.32,-26.93l0 -66.78c0.04,-0.23 0.04,-0.71 0.04,-0.95 0,-173.87 -69.31,-340.78 -192.33,-463.57 -123.08,122.79 -192.39,289.7 -192.39,463.57 0,0.24 0,0.72 0,0.96l-0.01 -0.02z"/>
   <path class="fil10" d="M9073.05 10714.43l0 66.78c62.53,17.88 127.32,26.94 192.37,26.94 65.05,0 129.84,-9.06 192.32,-26.93l0 -66.78c0.04,-0.23 0.04,-0.71 0.04,-0.95 0,-173.87 -69.31,-340.78 -192.33,-463.57 -123.08,122.79 -192.39,289.7 -192.39,463.57 0,0.24 0,0.72 0,0.96l-0.01 -0.02z"/>
   <path class="fil0" d="M10645.11 12478.01l-50.4 -207.48 -182.28 0 -50.82 207.48c44.93,18.6 93.14,28.19 141.76,28.19 48.61,0 96.82,-9.59 141.73,-28.18l0.01 -0.01z"/>
   <path class="fil1" d="M10412.43 12270.53l-11.76 48.3c33.4,9.82 68.11,14.81 102.91,14.81 34.79,0 69.5,-4.99 102.88,-14.79l-11.76 -48.3 -182.27 -0.02z"/>
   <path class="fil10" d="M10387.65 12370.91c-2.94,13.44 -6.3,26.46 -9.24,39.06 40.74,12.79 83.3,19.35 126.01,19.35 42.7,0 85.26,-6.56 125.97,-19.33l-9.66 -39.06c-38.28,7.7 -77.41,11.65 -116.52,11.65 -39.12,0 -78.25,-3.95 -116.58,-11.7l0.02 0.03z"/>
   <path class="fil3" d="M10695.93 12255.83c-60.93,25.17 -126.4,38.15 -192.35,38.15 -65.96,0 -131.43,-12.98 -192.35,-38.15l0 -1541.4c-0.01,-0.22 -0.01,-0.7 -0.01,-0.94 0,-173.87 69.31,-340.78 192.33,-463.57 123.07,122.79 192.38,289.7 192.38,463.57 0,0.24 0,0.72 0,0.96l0 1541.38z"/>
   <path class="fil3" d="M10311.21 10714.43l0 1452.78c61.73,21.55 126.94,32.6 192.37,32.6 65.42,0 130.63,-11.05 192.36,-32.57l-0.01 -1452.81c0,-0.22 0,-0.7 0,-0.94 0,-173.87 -69.31,-340.78 -192.32,-463.57 -123.08,122.79 -192.39,289.7 -192.39,463.57 0,0.24 0,0.72 0,0.96l-0.01 -0.02z"/>
   <path class="fil10" d="M10311.21 10714.43l0 1452.78c61.73,21.55 126.94,32.6 192.37,32.6 65.42,0 130.63,-11.05 192.36,-32.57l-0.01 -1452.81c0,-0.22 0,-0.7 0,-0.94 0,-173.87 -69.31,-340.78 -192.32,-463.57 -123.08,122.79 -192.39,289.7 -192.39,463.57 0,0.24 0,0.72 0,0.96l-0.01 -0.02z"/>
   <path class="fil3" d="M10311.21 10714.43l0 1092c62.53,17.88 127.32,26.94 192.37,26.94 65.04,0 129.83,-9.06 192.31,-26.93l0 -1092c0.04,-0.23 0.04,-0.71 0.04,-0.95 0,-173.87 -69.31,-340.78 -192.32,-463.57 -123.08,122.79 -192.39,289.7 -192.39,463.57 0,0.24 0,0.72 0,0.96l-0.01 -0.02z"/>
   <path class="fil4" d="M10311.21 10714.43l0 1092c62.53,17.88 127.32,26.94 192.37,26.94 65.04,0 129.83,-9.06 192.31,-26.93l0 -1092c0.04,-0.23 0.04,-0.71 0.04,-0.95 0,-173.87 -69.31,-340.78 -192.32,-463.57 -123.08,122.79 -192.39,289.7 -192.39,463.57 0,0.24 0,0.72 0,0.96l-0.01 -0.02z"/>
   <path class="fil3" d="M10311.21 10714.43l0 571.2c62.47,17.92 127.33,27.1 192.37,27.1 65.03,0 129.89,-9.18 192.38,-27.12l-0.03 -571.18c0,-0.22 0,-0.7 0,-0.94 0,-173.87 -69.31,-340.78 -192.32,-463.57 -123.08,122.79 -192.39,289.7 -192.39,463.57 0,0.24 0,0.72 0,0.96l-0.01 -0.02z"/>
   <path class="fil9" d="M10311.21 10714.43l0 571.2c62.47,17.92 127.33,27.1 192.37,27.1 65.03,0 129.89,-9.18 192.38,-27.12l-0.03 -571.18c0,-0.22 0,-0.7 0,-0.94 0,-173.87 -69.31,-340.78 -192.32,-463.57 -123.08,122.79 -192.39,289.7 -192.39,463.57 0,0.24 0,0.72 0,0.96l-0.01 -0.02z"/>
   <path class="fil3" d="M10311.21 10714.43l0 66.78c62.53,17.88 127.32,26.94 192.37,26.94 65.04,0 129.83,-9.06 192.31,-26.93l0 -66.78c0.04,-0.23 0.04,-0.71 0.04,-0.95 0,-173.87 -69.31,-340.78 -192.32,-463.57 -123.08,122.79 -192.39,289.7 -192.39,463.57 0,0.24 0,0.72 0,0.96l-0.01 -0.02z"/>
   <path class="fil10" d="M10311.21 10714.43l0 66.78c62.53,17.88 127.32,26.94 192.37,26.94 65.04,0 129.83,-9.06 192.31,-26.93l0 -66.78c0.04,-0.23 0.04,-0.71 0.04,-0.95 0,-173.87 -69.31,-340.78 -192.32,-463.57 -123.08,122.79 -192.39,289.7 -192.39,463.57 0,0.24 0,0.72 0,0.96l-0.01 -0.02z"/>
   <path class="fil0" d="M10113.39 12596.87l-84 -336 -294 0 -81.9 336c72.81,30.47 151.02,46.29 229.96,46.29 78.94,0 157.15,-15.82 229.93,-46.29l0.01 0z"/>
   <path class="fil1" d="M9737.49 12262.13c0,0 -12.18,50.4 -19.32,78.12 53.88,15.74 110.11,23.78 166.33,23.78 56.22,0 112.45,-8.04 166.35,-23.76l-19.32 -78.54 -294.04 0.4z"/>
   <path class="fil10" d="M9697.59 12424.67l-15.12 63c65.38,20.14 133.58,30.56 202.03,30.56 68.45,0 136.65,-10.42 202.02,-30.6l-15.12 -63c-61.42,12.04 -124.16,18.29 -186.9,18.29 -62.74,0 -125.48,-6.25 -186.93,-18.28l0.02 0.03z"/>
   <path class="fil3" d="M10195.29 12237.35c-98.31,41.04 -204.16,62.23 -310.79,62.23 -106.63,0 -212.48,-21.19 -310.83,-62.19l0.02 -2487.28c0.01,-0.25 0.01,-0.76 0.01,-1.02 0,-280.84 111.9,-550.45 310.78,-748.68 198.92,198.23 310.82,467.84 310.82,748.68 0,0.26 0,0.77 0,1.03l-0.01 2487.23z"/>
   <path class="fil3" d="M9573.69 9750.11l0 2345.7c99.81,34.56 205.08,52.3 310.81,52.3 105.73,0 211,-17.74 310.82,-52.29l-0.03 -2345.71c0.01,-0.25 0.01,-0.76 0.01,-1.02 0,-280.84 -111.9,-550.45 -310.78,-748.68 -198.92,198.23 -310.82,467.84 -310.82,748.68 0,0.26 0,0.77 0,1.03l-0.01 -0.01z"/>
   <path class="fil10" d="M9573.69 9750.11l0 2345.7c99.81,34.56 205.08,52.3 310.81,52.3 105.73,0 211,-17.74 310.82,-52.29l-0.03 -2345.71c0.01,-0.25 0.01,-0.76 0.01,-1.02 0,-280.84 -111.9,-550.45 -310.78,-748.68 -198.92,198.23 -310.82,467.84 -310.82,748.68 0,0.26 0,0.77 0,1.03l-0.01 -0.01z"/>
   <path class="fil3" d="M9573.69 9750.11l0 1761.48c100.93,28.74 205.73,43.42 310.81,43.42 105.08,0 209.88,-14.68 310.81,-43.47l-0.02 -1761.43c0.01,-0.25 0.01,-0.76 0.01,-1.02 0,-280.84 -111.9,-550.45 -310.78,-748.68 -198.92,198.23 -310.82,467.84 -310.82,748.68 0,0.26 0,0.77 0,1.03l-0.01 -0.01z"/>
   <path class="fil4" d="M9573.69 9750.11l0 1761.48c100.93,28.74 205.73,43.42 310.81,43.42 105.08,0 209.88,-14.68 310.81,-43.47l-0.02 -1761.43c0.01,-0.25 0.01,-0.76 0.01,-1.02 0,-280.84 -111.9,-550.45 -310.78,-748.68 -198.92,198.23 -310.82,467.84 -310.82,748.68 0,0.26 0,0.77 0,1.03l-0.01 -0.01z"/>
   <path class="fil3" d="M9573.69 9750.11l0 924c100.93,28.74 205.73,43.42 310.81,43.42 105.08,0 209.88,-14.68 310.81,-43.47l0 -924c-0.01,-0.2 -0.01,-0.71 -0.01,-0.97 0,-280.84 -111.9,-550.45 -310.78,-748.68 -198.92,198.23 -310.82,467.84 -310.82,748.68 0,0.26 0,0.77 0,1.03l-0.01 -0.01z"/>
   <path class="fil9" d="M9573.69 9750.11l0 924c100.93,28.74 205.73,43.42 310.81,43.42 105.08,0 209.88,-14.68 310.81,-43.47l0 -924c-0.01,-0.2 -0.01,-0.71 -0.01,-0.97 0,-280.84 -111.9,-550.45 -310.78,-748.68 -198.92,198.23 -310.82,467.84 -310.82,748.68 0,0.26 0,0.77 0,1.03l-0.01 -0.01z"/>
   <path class="fil3" d="M9573.69 9750.11l0 107.94c100.93,28.74 205.73,43.42 310.81,43.42 105.08,0 209.88,-14.68 310.81,-43.47l0 -107.94c-0.01,-0.2 -0.01,-0.71 -0.01,-0.97 0,-280.84 -111.9,-550.45 -310.78,-748.68 -198.92,198.23 -310.82,467.84 -310.82,748.68 0,0.26 0,0.77 0,1.03l-0.01 -0.01z"/>
   <path class="fil7" d="M9573.69 9750.11l0 107.94c100.93,28.74 205.73,43.42 310.81,43.42 105.08,0 209.88,-14.68 310.81,-43.47l0 -107.94c-0.01,-0.2 -0.01,-0.71 -0.01,-0.97 0,-280.84 -111.9,-550.45 -310.78,-748.68 -198.92,198.23 -310.82,467.84 -310.82,748.68 0,0.26 0,0.77 0,1.03l-0.01 -0.01z"/>
   <path class="fil3" d="M10065.51 10247.81c0.01,0.13 0.01,0.29 0.01,0.42 0,99.96 -81.06,181.02 -181.02,181.02 -99.96,0 -181.02,-81.06 -181.02,-181.02 0,-99.96 81.06,-181.02 181.02,-181.02 0,0 0,0 0,0 99.8,0 180.8,80.8 181.02,180.6l-0.01 0z"/>
   <path class="fil3" d="M9884.49 10428.83c-0.11,0 -0.27,0 -0.4,0 -94.76,0 -173.36,-73.45 -179.76,-167.99 0,4.62 0,9.24 0,13.44 -0.01,99.95 81.05,181.01 181.01,181.01 99.96,0 181.02,-81.06 181.02,-181.02 0,-4.2 0,-8.82 0,-13.44 -6.59,94.61 -85.31,168.01 -180.16,168.01 -0.55,0 -1.15,0 -1.7,0l-0.01 -0.01z"/>
   <path class="fil2" d="M9884.49 10428.83c-0.11,0 -0.27,0 -0.4,0 -94.76,0 -173.36,-73.45 -179.76,-167.99 0,4.62 0,9.24 0,13.44 -0.01,99.95 81.05,181.01 181.01,181.01 99.96,0 181.02,-81.06 181.02,-181.02 0,-4.2 0,-8.82 0,-13.44 -6.59,94.61 -85.31,168.01 -180.16,168.01 -0.55,0 -1.15,0 -1.7,0l-0.01 -0.01z"/>
   <circle class="fil6" cx="9884.49" cy="10247.81" r="128.1"/>
   <path class="fil3" d="M9877.77 10375.07l52.5 -246.12c-13.37,-5.27 -27.62,-8.12 -41.99,-8.39l-52.51 245.69c13.35,5.44 27.62,8.44 42.01,8.82l-0.01 0z"/>
   <path class="fil3" d="M9925.65 10368.77l45.36 -214.62c-5.82,-5.33 -12.16,-10.15 -18.88,-14.28l-49.98 234.36c7.96,-1.17 15.84,-3 23.5,-5.46z"/>
   <path class="fil11" d="M9877.77 10375.07l52.5 -246.12c-13.37,-5.27 -27.62,-8.12 -41.99,-8.39l-52.51 245.69c13.35,5.44 27.62,8.44 42.01,8.82l-0.01 0z"/>
   <path class="fil11" d="M9925.65 10368.77l45.36 -214.62c-5.82,-5.33 -12.16,-10.15 -18.88,-14.28l-49.98 234.36c7.96,-1.17 15.84,-3 23.5,-5.46z"/>
   <g id="freepik--Character--inject-74">
    <path class="fil12" d="M14521.71 15104.27l-48.3 10.5c-44.31,8.94 -78.07,45.06 -83.99,89.88l-4.2 34.02c-0.58,4.44 -0.87,8.95 -0.87,13.44 0,30.01 12.87,58.62 35.3,78.53 79.38,69.3 266.7,197.82 493.5,115.08l181.02 -136.5 -29.82 -244.44 -378 -54.6c-22.85,0.84 -44.83,9.11 -62.58,23.52l-102.06 70.57z"/>
    <polygon class="fil12" points="15095.43,15309.23 15598.17,15284.03 15520.47,15010.61 15065.61,15064.79 "/>
    <path class="fil3" d="M15394.89 15012.71c-15.13,28.35 -23.09,60.06 -23.09,92.22 0,11.3 1,22.65 2.94,33.76 9.07,69.77 37.2,135.74 81.07,190.69l-0.02 0.01c-84.65,1.22 -168.06,21.86 -243.58,60.06l-4.2 2.1c-262.08,-178.92 -110.88,-391.02 -110.88,-391.02l17.22 2.52c61.76,8.54 124.5,12.87 186.92,12.87 31.12,0 62.58,-1.17 93.54,-3.16l0.08 -0.05z"/>
    <path class="fil3" d="M16424.31 15238.25c-467.04,107.52 -1047.9,97.02 -1047.9,97.02 -16.6,-27.99 -25.37,-60 -25.37,-92.54 0,-4.85 0.2,-9.75 0.58,-14.58 4.2,-78.12 14.7,-175.98 42,-215.46 27.3,-39.48 229.32,-60.48 229.32,-60.48 0,0 390.18,-181.02 464.1,-240.24 73.92,-59.22 70.98,-336 57.12,-517.86 -74.34,-977.34 97.44,-1050 252,-1094.94 327.61,-91.12 441.43,2043.74 28.15,2139.08z"/>
    <path class="fil3" d="M13224.33 15447.83l1305.36 0c42,0 61.74,-34.44 42,-76.86l-325.92 -736.26c-20.69,-43.64 -63.16,-72.98 -111.3,-76.86l-1305.78 0c-42,0 -61.74,34.44 -42,76.86l327.6 736.26c20.39,43.33 62.33,72.62 110.05,76.85l-0.01 0.01z"/>
    <path class="fil8" d="M13224.33 15447.83l1305.36 0c42,0 61.74,-34.44 42,-76.86l-325.92 -736.26c-20.69,-43.64 -63.16,-72.98 -111.3,-76.86l-1305.78 0c-42,0 -61.74,34.44 -42,76.86l327.6 736.26c20.39,43.33 62.33,72.62 110.05,76.85l-0.01 0.01z"/>
    <path class="fil3" d="M12771.99 14557.85l56.7 0c-42,0 -61.74,34.44 -42,76.86l327.6 736.26c20.53,43.57 62.87,72.89 110.88,76.84l-56.28 0.02c-48.14,-3.9 -90.61,-33.24 -111.3,-76.87l-327.18 -736.26c-19.74,-42.41 -0.84,-76.85 41.58,-76.85z"/>
    <path class="fil13" d="M12771.99 14557.85l56.7 0c-42,0 -61.74,34.44 -42,76.86l327.6 736.26c20.53,43.57 62.87,72.89 110.88,76.84l-56.28 0.02c-48.14,-3.9 -90.61,-33.24 -111.3,-76.87l-327.18 -736.26c-19.74,-42.41 -0.84,-76.85 41.58,-76.85z"/>
    <polygon class="fil0" points="13248.69,15363.41 14430.15,15363.41 14109.69,14642.27 12928.23,14642.27 "/>
    <polygon class="fil9" points="13248.69,15363.41 14430.15,15363.41 14109.69,14642.27 12928.23,14642.27 "/>
    <path class="fil0" d="M17136.21 15390.29c0,0 32.34,430.92 36.96,582.12 31.5,1010.1 -792.96,1086.96 -1399.44,975.66l-2196.6 -614.04c-86.94,291.9 -1102.5,1899.24 -1102.5,1899.24l-533.82 -306.6c0,0 553.56,-1326.78 910.98,-2250.36 203.7,-527.1 1863.96,-162.54 2475.48,-53.76 185.64,49.98 149.94,-240.24 149.94,-240.24l1659 7.98z"/>
    <polygon class="fil12" points="12338.55,18203.03 12134.43,18542.81 11754.33,18353.81 11952.15,17966.99 "/>
    <path class="fil3" d="M11551.89 18285.35c-49.98,-23.1 -97.86,-55.86 -104.58,-84 -0.3,-2.03 -0.45,-4.08 -0.45,-6.12 0,-14.66 7.66,-28.28 20.19,-35.89 9.12,-6.19 19.91,-9.52 30.94,-9.52 3.71,0 7.43,0.38 11.06,1.12 76.02,12.18 180.18,157.08 184.38,163.38 1.33,1.75 2.05,3.89 2.05,6.09 0,2.2 -0.72,4.34 -2.05,6.09 -2.23,2.78 -5.6,4.4 -9.17,4.4 -0.73,0 -1.45,-0.07 -2.17,-0.2 -44.55,-11.12 -88.26,-26.48 -130.15,-45.38l-0.05 0.03zm102.06 -62.58c-6.08,-2.97 -12.62,-4.97 -19.32,-5.9 -2.48,-0.67 -5.04,-1.01 -7.61,-1.01 -6.18,0 -12.2,1.98 -17.17,5.64 -12.6,8.82 -13.02,15.54 -11.76,20.16 6.72,34.86 108.36,81.9 187.74,107.1 -65.72,-85.04 -158,-145.89 -262.08,-172.61l130.2 46.62z"/>
    <path class="fil3" d="M11679.15 18327.35c-0.6,0.23 -1.24,0.36 -1.89,0.36 -0.65,0 -1.29,-0.13 -1.89,-0.37 -38.22,-42 -95.34,-175.14 -65.94,-216.72 5.88,-10.5 20.16,-20.16 47.88,-10.5 20.34,7.16 36.89,22.34 45.77,41.99 31.92,65.94 -7.14,179.76 -8.82,184.8 -1.26,3.68 -4.53,6.29 -8.39,6.73 -3.09,-0.95 -5.57,-3.27 -6.72,-6.3l0 0.01zm-17.22 -203.7l-5.04 -2.94c-18.06,-6.72 -22.26,0 -23.94,2.1 -15.12,26.04 17.22,123.48 53.76,175.98 8.51,-25.4 12.87,-52.06 12.87,-78.83 0,-23.48 -3.36,-46.92 -9.92,-69.43 -5.63,-12.06 -15.51,-21.65 -27.73,-26.89l0 0.01z"/>
    <path class="fil0" d="M11747.61 18291.65l440.16 201.18c13.89,6.35 22.8,20.23 22.8,35.51 0,2.17 -0.19,4.35 -0.54,6.49l-84 394.8c-6.12,30.13 -32.63,51.81 -63.39,51.81 -4.52,0 -9.05,-0.48 -13.47,-1.42 -4.5,-0.83 -8.89,-2.24 -13.02,-4.2 -157.5,-75.18 -294,-148.68 -492.66,-238.56 -233.1,-106.68 -186.9,-51.66 -462,-173.46 -168,-73.5 -110.46,-275.1 -36.54,-252 339.36,106.68 417.06,24.78 593.46,-33.18 12.36,-3.18 25.1,-4.81 37.87,-4.81 24.88,0 49.39,6.13 71.32,17.83l0.01 0.01z"/>
    <polygon class="fil8" points="12234.81,18375.65 12338.55,18203.03 11952.15,17966.99 11856.39,18153.89 "/>
    <path class="fil3" d="M12559.47 18201.35l-661.92 -412.86c-53.16,29.65 -86.14,85.81 -86.14,146.7 0,8.94 0.74,17.93 2.15,26.75l636.71 407.41c0,0 85.26,-5.46 109.2,-168z"/>
    <polygon class="fil12" points="13464.99,19893.53 13384.77,20270.27 12975.69,20216.51 13035.33,19798.19 "/>
    <path class="fil3" d="M12767.79 20217.35c-53.34,-5.46 -107.52,-20.58 -123.06,-45.36 -2.69,-5.34 -4.09,-11.25 -4.09,-17.22 0,-9.08 3.24,-17.88 9.13,-24.79 8.38,-11.04 20.74,-18.42 34.44,-20.57 73.5,-12.6 215.04,87.36 221.34,91.98 2.61,1.88 4.16,4.92 4.16,8.15 0,0.93 -0.13,1.86 -0.39,2.76 -1.3,4.13 -4.92,7.09 -9.23,7.56 -17.02,1.15 -34.39,1.72 -51.48,1.72 -26.9,0 -54.09,-1.51 -80.81,-4.25l-0.01 0.02zm72.24 -87.78c-3.25,-0.53 -6.57,-0.8 -9.87,-0.8 -3.3,0 -6.62,0.27 -9.87,0.79 -8.59,0.67 -16.45,5.13 -21.42,12.18 -8.82,12.18 -6.72,18.48 -4.2,22.26 17.22,29.82 126,42 206.22,39.06 -77.02,-50.86 -167.49,-78.04 -259.85,-78.04 -11.06,0 -22.28,0.4 -33.28,1.15l132.27 3.4z"/>
    <path class="fil3" d="M12898.83 20217.35c-0.68,0.22 -1.39,0.33 -2.1,0.33 -0.71,0 -1.42,-0.11 -2.1,-0.34 -49.14,-28.14 -143.22,-131.04 -129.36,-178.5 2.1,-11.76 12.18,-24.78 42,-24.78 0.36,0 0.76,-0.01 1.13,-0.01 20.16,0 39.46,8.2 53.47,22.69 50.4,50.4 50.4,168 50.4,172.62 0,0.04 0,0.08 0,0.12 0,3.71 -2.12,7.09 -5.46,8.7 -1.03,0.51 -2.17,0.77 -3.32,0.77 -1.69,0 -3.33,-0.57 -4.66,-1.61l0 0.01zm-80.22 -183.12l-5.46 0c-18.48,0 -20.58,7.14 -21.42,9.66 -5.46,28.98 55.02,108.36 105,144.9 -0.26,-49.1 -15.67,-96.95 -44.09,-136.94 -9.04,-9.31 -21.11,-15.14 -34.04,-16.37l0.01 -1.25z"/>
    <path class="fil0" d="M12950.07 20161.07l468.3 46.2c17.74,1.65 31.92,15.48 34.02,33.17l47.46 389.34c0.32,2.54 0.47,5.12 0.47,7.69 0,31.79 -23.55,58.69 -55.07,62.87 -2.22,0.21 -4.48,0.32 -6.72,0.32 -2.24,0 -4.5,-0.11 -6.72,-0.32 -168,-19.74 -317.94,-42 -527.94,-63.84 -248.22,-24.36 -188.16,11.34 -480.48,-13.02 -175.98,-15.12 -188.58,-217.98 -112.98,-220.5 345.24,-9.24 391.02,-108.78 534.24,-217.98 25.04,-16.53 54.46,-25.38 84.48,-25.38 7,0 14.02,0.49 20.94,1.44l0 0.01z"/>
    <polygon class="fil8" points="13003.83,20018.27 13431.39,20051.45 13464.99,19893.53 13035.33,19798.19 "/>
    <polygon class="fil0" points="13586.37,19744.43 13574.19,19791.89 12947.13,19742.33 12953.85,19694.87 "/>
    <path class="fil3" d="M13611.99 19940.99l-154.56 -13.86 -435.12 -39.06 -140.28 -12.6c-21.06,-28.32 -32.45,-62.72 -32.45,-98.01 0,-31.52 9.1,-62.41 26.14,-88.9l78.12 6.3 632.52 49.56 45.36 3.78c52.51,150.79 -19.73,192.79 -19.73,192.79z"/>
    <path class="fil0" d="M16158.03 17322.71c-567.42,49.98 -1876.14,70.98 -2053.38,44.94l-518.28 2376.78 -632.52 -49.56c0,0 66.78,-2055.06 345.66,-2904.72 224.28,-682.92 3811.92,-541.38 3811.92,-541.38l12.6 192.36c24.78,662.76 -316.26,824.04 -966,881.58z"/>
    <path class="fil14" d="M16158.03 17322.71c-567.42,49.98 -1876.14,70.98 -2053.38,44.94l-518.28 2376.78 -632.52 -49.56c0,0 66.78,-2055.06 345.66,-2904.72 224.28,-682.92 3811.92,-541.38 3811.92,-541.38l12.6 192.36c24.78,662.76 -316.26,824.04 -966,881.58z"/>
    <path class="fil0" d="M13289.43 17038.37c-0.11,-1.87 -0.17,-3.8 -0.17,-5.68 0,-1.88 0.06,-3.81 0.17,-5.67l0 11.34 0 0.01z"/>
    <path class="fil0" d="M13331.85 16731.35l-6.3 46.62c1.14,-15.61 3.35,-31.27 6.32,-46.63l-0.02 0.01z"/>
    <polygon class="fil12" points="15340.29,13018.13 15514.59,13272.65 15906.45,12937.49 15661.59,12636.77 "/>
    <path class="fil8" d="M15427.65 13138.67c75.6,-111.3 42,-283.92 42,-283.92l-68.88 87.78 -59.64 75.6 86.52 120.54z"/>
    <path class="fil0" d="M14669.97 12457.43c8.4,24.78 28.56,42 44.94,34.44 16.38,-7.56 23.52,-32.34 14.7,-56.28 -8.82,-23.94 -28.14,-42 -44.94,-34.02 -16.8,7.98 -22.68,31.08 -14.7,55.86z"/>
    <path class="fil15" d="M14760.69 12464.99l-55.44 237.72c12.38,2.58 25.06,3.89 37.72,3.89 44.83,0 88.19,-16.33 121.88,-45.89l-104.16 -195.72z"/>
    <path class="fil0" d="M14645.19 12283.97c2.01,-1.03 4.25,-1.57 6.51,-1.57 2.26,0 4.5,0.54 6.51,1.57 13.28,5.59 27.57,8.47 41.99,8.47 20.02,0 39.66,-5.56 56.71,-16.02 2.3,-1.84 5.15,-2.83 8.09,-2.83 4.34,0 8.39,2.16 10.81,5.76 1.54,2.33 2.37,5.08 2.37,7.88 0,4.5 -2.13,8.74 -5.73,11.44 -21.73,14.49 -47.3,22.24 -73.42,22.24 -18.07,0 -36.02,-3.73 -52.59,-10.9 -5.37,-2.04 -8.94,-7.2 -8.94,-12.96 0,-1.74 0.33,-3.48 0.97,-5.1l0 0c1.43,-3.25 3.76,-6.02 6.72,-7.98z"/>
    <path class="fil12" d="M15601.11 12027.35c126,324.66 188.58,459.48 102.06,699.3 -170.1,283.5 -561.96,455.7 -785.4,177.66 -200.76,-252 -375.06,-737.94 -120.54,-1016.4 91.87,-103.13 223.47,-162.13 361.58,-162.13 117.41,0 230.99,42.74 319.25,120.13 54.91,49.68 97.21,112.01 123.04,181.44l0.01 0z"/>
    <path class="fil0" d="M15908.55 12123.95c-17.62,108.74 -28.8,219.28 -32.31,329.19 -6.19,208.35 -137.93,392.2 -333.11,465.02l0.02 0.01c0,0 -457.8,-5.46 -652.26,-581.28 -10.26,0.98 -20.63,1.46 -30.96,1.46 -181.83,0 -329.28,-147.45 -329.28,-329.28 0,-32.36 4.78,-64.6 14.15,-95.56 37.38,-122.64 192.36,-199.08 320.46,-203.7 79.48,-103.23 202.49,-163.79 332.83,-163.79 8.87,0 17.9,0.31 26.71,0.87 138.41,11.22 272.46,55.59 390.2,129.28 106.21,53.21 196.37,134.27 260.37,234.42 25.06,47.93 38.19,101.42 38.19,155.57 0,19.36 -1.68,38.76 -5,57.8l-0.01 -0.01z"/>
    <path class="fil12" d="M14986.23 12405.35c-15.39,34.42 -23.38,71.8 -23.38,109.55 0,33.35 6.26,66.45 18.35,97.51 35.28,87.78 129.36,73.08 183.54,0 49.14,-66.78 89.04,-191.94 22.68,-256.62 -66.36,-64.68 -164.65,-30.24 -201.19,49.56z"/>
    <path class="fil3" d="M15909.81 12748.07c-126,5.46 -312.06,90.72 -560.7,262.08 -22.15,19.21 -34.87,47.12 -34.87,76.44 0,5.34 0.42,10.7 1.26,15.97 2.94,33.6 36.54,65.1 68.46,54.6 16.38,42 27.3,88.2 42,128.52 77.66,-39.46 158.26,-73.4 240.99,-100.76 124.7,-49.98 254.2,-92.62 384.49,-126.18 -34.86,-53.34 -81.48,-105.42 -95.34,-168 24.79,-10.91 40.85,-35.6 40.85,-62.83 0,-5.38 -0.64,-10.77 -1.88,-16 -14.55,-35.3 -47.28,-59.8 -85.25,-63.84l-0.01 0z"/>
    <path class="fil3" d="M15909.81 12748.07c-126,5.46 -312.06,90.72 -560.7,262.08 -22.15,19.21 -34.87,47.12 -34.87,76.44 0,5.34 0.42,10.7 1.26,15.97 2.94,33.6 36.54,65.1 68.46,54.6 16.38,42 27.3,88.2 42,128.52 77.66,-39.46 158.26,-73.4 240.99,-100.76 124.7,-49.98 254.2,-92.62 384.49,-126.18 -34.86,-53.34 -81.48,-105.42 -95.34,-168 24.79,-10.91 40.85,-35.6 40.85,-62.83 0,-5.38 -0.64,-10.77 -1.88,-16 -14.55,-35.3 -47.28,-59.8 -85.25,-63.84l-0.01 0z"/>
    <path class="fil3" d="M15541.05 15965.27c-264.4,-634.14 -495.59,-1294.97 -679.72,-1957.84 -194.88,-727.44 361.62,-740.04 1033.2,-920.64 532.56,-143.22 760.2,-15.12 912.24,254.94 152.04,270.06 397.32,2555.7 397.32,2555.7l-1663.04 67.84z"/>
    <path class="fil3" d="M15541.05 15965.27c-264.4,-634.14 -495.59,-1294.97 -679.72,-1957.84 -194.88,-727.44 361.62,-740.04 1033.2,-920.64 532.56,-143.22 760.2,-15.12 912.24,254.94 152.04,270.06 397.32,2555.7 397.32,2555.7l-1663.04 67.84z"/>
    <path class="fil2" d="M15541.05 15965.27c-264.4,-634.14 -495.59,-1294.97 -679.72,-1957.84 -194.88,-727.44 361.62,-740.04 1033.2,-920.64 532.56,-143.22 760.2,-15.12 912.24,254.94 152.04,270.06 397.32,2555.7 397.32,2555.7l-1663.04 67.84z"/>
    <path class="fil12" d="M13111.77 14916.95l-47.04 0c-42.95,1.65 -80.19,30.3 -92.82,71.39l-9.66 31.08c-3.14,9.81 -4.74,20.1 -4.74,30.41 0,22.49 7.6,44.35 21.54,61.98 63.42,78.54 217.98,230.58 445.2,190.26l193.62 -98.28 12.6 -235.2 -345.24 -113.82c-4.54,-0.61 -9.13,-0.92 -13.72,-0.92 -17.23,0 -34.19,4.37 -49.28,12.68l-110.46 50.42z"/>
    <polygon class="fil12" points="13618.71,15205.49 14095.83,15265.55 14068.11,14995.07 13631.31,14970.29 "/>
    <path class="fil3" d="M13951.77 14976.17c-26.64,33.09 -41.48,74.28 -41.99,116.76 -0.22,5.24 -0.36,10.73 -0.36,16.05 0,61.83 15.49,122.8 44.89,177.13l-0.02 0.02c-28.12,-4.56 -56.73,-6.9 -85.27,-6.9 -52.22,0 -104.17,7.72 -154.12,22.83l-4.2 0c-216.72,-212.1 -39.06,-386.4 -39.06,-386.4l15.96 5.04c85.7,27.55 174.56,46.31 264.21,55.53l-0.04 -0.06z"/>
    <path class="fil3" d="M14880.81 15359.63c-457.38,23.52 -1002.12,-84 -1002.12,-84 -7.47,-19.73 -11.32,-40.69 -11.32,-61.8 0,-14.56 1.85,-29.13 5.45,-43.22 17.22,-73.08 42,-163.38 76.86,-195.72 34.86,-32.34 225.96,-18.48 225.96,-18.48 0,0 397.32,-105.84 476.7,-149.1 79.38,-43.26 122.63,-301.96 139.43,-476.68 92.82,-932.4 266.7,-972.72 420,-988.26 321.3,-31.92 73.92,1996.68 -330.96,2017.26z"/>
    <path class="fil0" d="M16387.77 20670.95l-317.1 -2650.2c-32.1,-268.12 -259.57,-469.99 -529.62,-469.99 0,0 0,0 0,0l-1046.22 0.01c-0.57,-0.01 -1.35,-0.01 -1.93,-0.01 -261.27,0 -483.88,190.12 -524.75,448.14l-426.72 2638.45 -84 -13.44 427.14 -2637.6c47.3,-298.69 304.86,-518.71 607.31,-518.71 0.68,0 1.43,0 2.1,0l1047.91 0.01c312.46,0.22 575.72,233.67 613.24,543.88l317.1 2650.2 -84.46 9.26z"/>
    <path class="fil0" d="M17855.25 20670.95l-317.1 -2650.2c-32.1,-268.12 -259.57,-469.99 -529.62,-469.99 0,0 0,0 0,0l-1047.9 0.01c-0.73,-0.01 -1.58,-0.01 -2.29,-0.01 -261.19,0 -483.7,190.16 -524.4,448.11l-427.13 2638.48 -84 -13.44 427.14 -2637.6c47.03,-298.54 304.63,-518.71 606.95,-518.71 0.75,0 1.73,0 2.48,0l1047.89 0.01c312.46,0.22 575.72,233.67 613.24,543.88l317.1 2650.2 -82.36 9.26z"/>
    <rect class="fil0" x="13611.99" y="19898.99" width="1442.7" height="84"/>
    <rect class="fil0" x="16114.35" y="17973.71" width="1491.42" height="84"/>
    <path class="fil3" d="M16387.77 17568.83l1097.46 0c423.09,-0.01 775.28,-325.47 808.54,-747.17l156.24 -1971.48c1.06,-14.35 1.66,-28.85 1.66,-43.28 0,-302.78 -244.92,-548.64 -547.7,-549.78l-609 0.01c-707.38,-0.01 -1331.36,465.14 -1533.37,1142.85l-420 1407.42c-70.2,235.87 -287.27,397.7 -533.42,397.7 -0.14,0 -0.34,0 -0.48,0l-767.73 0.01c-200.69,0.17 -363.3,163 -363.3,363.71 0,0 0,0 0,0l2711.1 0.01z"/>
    <path class="fil11" d="M16387.77 17568.83l1097.46 0c423.09,-0.01 775.28,-325.47 808.54,-747.17l156.24 -1971.48c1.06,-14.35 1.66,-28.85 1.66,-43.28 0,-302.78 -244.92,-548.64 -547.7,-549.78l-609 0.01c-707.38,-0.01 -1331.36,465.14 -1533.37,1142.85l-420 1407.42c-70.2,235.87 -287.27,397.7 -533.42,397.7 -0.14,0 -0.34,0 -0.48,0l-767.73 0.01c-200.69,0.17 -363.3,163 -363.3,363.71 0,0 0,0 0,0l2711.1 0.01z"/>
   </g>
   <g id="freepik--Speedometer--inject-74">
    <path class="fil3" d="M15299.55 10764.83l0 0 0 -4.62c0.11,0.76 0.16,1.54 0.16,2.31 0,0.77 -0.05,1.55 -0.16,2.31z"/>
    <path class="fil3" d="M13321.77 10233.11c-143.5,132.27 -249.12,301.61 -304.5,488.92l-76.86 0c26.4,-210.99 105.56,-412.23 229.67,-584.7l151.69 95.78z"/>
    <path class="fil4" d="M13321.77 10233.11c-143.5,132.27 -249.12,301.61 -304.5,488.92l-76.86 0c26.4,-210.99 105.56,-412.23 229.67,-584.7l151.69 95.78z"/>
    <path class="fil3" d="M13766.97 9981.53c-166.26,47.36 -319.03,133.88 -445.16,252.07l-151.66 -96.25c123.69,-173.04 286.67,-314.74 475.37,-412.89l121.45 257.07z"/>
    <path class="fil5" d="M13766.97 9981.53c-166.26,47.36 -319.03,133.88 -445.16,252.07l-151.66 -96.25c123.69,-173.04 286.67,-314.74 475.37,-412.89l121.45 257.07z"/>
    <path class="fil3" d="M14238.63 9582.95l-37.38 375.06c-52.71,-9.08 -106.58,-13.86 -160.22,-13.86 -0.68,0 -1.59,0 -2.28,0 -91.91,0 -183.39,12.61 -271.79,37.33l-121.38 -256.2c177.39,-92.87 374.92,-141.87 575.35,-142.33l17.7 0z"/>
    <path class="fil10" d="M14238.63 9582.95l-37.38 375.06c-52.71,-9.08 -106.58,-13.86 -160.22,-13.86 -0.68,0 -1.59,0 -2.28,0 -91.91,0 -183.39,12.61 -271.79,37.33l-121.38 -256.2c177.39,-92.87 374.92,-141.87 575.35,-142.33l17.7 0z"/>
    <path class="fil3" d="M14800.59 9742.13l-244.86 359.1c-106.22,-73 -227.47,-122 -354.53,-143.21l37.38 -375.06c198.22,1.3 392.53,56.45 562.01,159.11l0 0.06z"/>
    <path class="fil16" d="M14800.59 9742.13l-244.86 359.1c-106.22,-73 -227.47,-122 -354.53,-143.21l37.38 -375.06c198.22,1.3 392.53,56.45 562.01,159.11l0 0.06z"/>
    <path class="fil3" d="M15189.09 10165.49l-382.2 204.54c-63.49,-106.79 -149.71,-198.56 -252.05,-268.75l244.86 -359.1c166.58,101.97 301.69,248.88 389.37,423.34l0.02 -0.03z"/>
    <path class="fil1" d="M15189.09 10165.49l-382.2 204.54c-63.49,-106.79 -149.71,-198.56 -252.05,-268.75l244.86 -359.1c166.58,101.97 301.69,248.88 389.37,423.34l0.02 -0.03z"/>
    <path class="fil3" d="M15300.81 10749.29l-373.8 -4.2c-11.72,-132.34 -52.8,-260.51 -120.11,-375.02l382.2 -204.54c75.73,153 115.44,322 115.44,492.89 0,30.22 -1.22,60.85 -3.66,90.94l-0.07 -0.07z"/>
    <path class="fil7" d="M15300.81 10749.29l-373.8 -4.2c-11.72,-132.34 -52.8,-260.51 -120.11,-375.02l382.2 -204.54c75.73,153 115.44,322 115.44,492.89 0,30.22 -1.22,60.85 -3.66,90.94l-0.07 -0.07z"/>
    <path class="fil3" d="M15299.97 10760.21c0.11,0.76 0.16,1.54 0.16,2.31 0,0.77 -0.05,1.55 -0.16,2.31 -15.07,131.13 -48.67,260.34 -99.49,382.15l-302.82 -68.46 24.36 -115.5c2.1,-15.12 4.2,-30.24 5.46,-45.36l-0.05 0.05 0 -9.24 0 0c2.39,-27.13 3.63,-54.47 3.63,-81.69 0,-27.22 -1.24,-54.56 -3.6,-81.67l373.8 4.2c0,2.52 0,4.2 0,6.3 -0.2,1.57 -0.63,3.14 -1.29,4.6z"/>
    <path class="fil3" d="M12985.77 11123.09l-22.26 5.04c-7.14,-28.98 -13.02,-58.38 -18.06,-88.2 -9.08,-59.5 -13.94,-119.8 -13.94,-180.11 0,-31.58 1.43,-63.59 3.86,-95.03l0 0.04 0 -4.62c-0.09,-0.76 -0.14,-1.54 -0.14,-2.31 0,-0.77 0.05,-1.55 0.14,-2.31 0,-11.34 2.1,-23.1 3.78,-34.44l76.86 0c-17.77,60.81 -30.06,123.38 -36.14,186.44 -6.08,63.06 0,2.94 0,4.62 0,1.68 0,2.94 0,4.62 -1.79,24.78 -2.77,50 -2.77,74.86 0,12.37 0.37,25.1 0.73,37.35 1.64,32.31 4.16,63.39 7.94,94.05z"/>
    <path class="fil11" d="M12985.77 11123.09l-22.26 5.04c-7.14,-28.98 -13.02,-58.38 -18.06,-88.2 -9.08,-59.5 -13.94,-119.8 -13.94,-180.11 0,-31.58 1.43,-63.59 3.86,-95.03l0 0.04 0 -4.62c-0.09,-0.76 -0.14,-1.54 -0.14,-2.31 0,-0.77 0.05,-1.55 0.14,-2.31 0,-11.34 2.1,-23.1 3.78,-34.44l76.86 0c-17.77,60.81 -30.06,123.38 -36.14,186.44 -6.08,63.06 0,2.94 0,4.62 0,1.68 0,2.94 0,4.62 -1.79,24.78 -2.77,50 -2.77,74.86 0,12.37 0.37,25.1 0.73,37.35 1.64,32.31 4.16,63.39 7.94,94.05z"/>
    <path class="fil0" d="M15275.61 11061.35l-31.92 78.96 -64.68 -14.28 -602.7 -136.5 -259.56 -58.8c18,-23.32 33.02,-48.91 44.52,-76.03 13.18,-31.66 21.16,-65.33 23.51,-99.53l575.4 197.82 0.01 0 315.42 108.36z"/>
    <path class="fil0" d="M14384.79 10756.01c-4.78,63.93 -28.53,125.09 -68.04,175.56l-233.1 -52.92 73.5 -200.76 227.64 78.12z"/>
    <path class="fil3" d="M14384.79 10756.01c-4.78,63.93 -28.53,125.09 -68.04,175.56 -28.89,36.89 -65.27,67.45 -106.66,89.48 -149.94,80.22 -326.76,29.82 -394.38,-113.4 -16.33,-38.78 -24.77,-80.5 -24.77,-122.57 0,-119.15 67.09,-228.19 173.44,-281.91 149.94,-80.22 326.76,-29.4 394.8,113.4 17.34,37.05 26.4,77.54 26.4,118.46 0,6.98 -0.27,14.03 -0.78,20.97l-0.01 0.01z"/>
   </g>
   <g id="freepik--Number--inject-74">
    <path class="fil17" d="M6524.07 13020.6l240.66 0 0 201.6 -264.6 0 -36.96 294 -210 0 36.96 -294 -271.74 0 -36.96 294 -205.8 0 36.96 -294 -242.34 0 0 -201.6 266.28 0 38.64 -299.46 -241.92 0 0 -201.6 266.28 0 36.96 -294 207.06 0 -36.96 294 271.32 0 36.96 -294 207.06 0 -36.96 294 240.24 0 0 201.6 -266.28 0 -34.86 299.46zm-210 0l38.64 -299.46 -268.8 0 -42 299.46 272.16 0z"/>
    <polygon class="fil17" points="7435.47,12223.44 7435.47,13517.88 7136.01,13517.88 7136.01,12464.1 6877.29,12464.1 6877.29,12223.44 "/>
   </g>
   <g id="freepik--Symbol--inject-74">
    <rect class="fil0" x="2534.07" y="15164.33" width="2071.02" height="1425.9"/>
    <rect class="fil3" x="2534.07" y="15164.33" width="2071.02" height="130.62"/>
    <path class="fil6" d="M2913.33 15953.09l338.94 187.74c12.67,6.18 24.12,14.76 33.61,25.19 5.49,7.69 8.45,16.92 8.45,26.37 0,0.73 -0.02,1.47 -0.06,2.19 0.01,0.23 0.02,0.5 0.02,0.75 0,14.05 -5.6,27.54 -15.54,37.47 -9.54,10.18 -22.87,15.96 -36.81,15.96 -0.05,0 -0.11,0 -0.16,0 -14.96,-1.78 -29.35,-6.97 -42.01,-15.13l-436.8 -243.18c-14.01,-7.17 -22.84,-21.61 -22.84,-37.37 0,-15.76 8.83,-30.2 22.85,-37.38l436.79 -243.17c12.76,-7.87 27.12,-12.91 42,-14.71 29.2,0.45 52.71,24.14 52.93,53.34 0.07,1.06 0.12,2.13 0.12,3.2 0,9.15 -3,18.07 -8.52,25.36 -9.34,10.72 -20.78,19.46 -33.6,25.62l-339.37 187.75z"/>
    <path class="fil6" d="M3784.83 15603.23l-336 721.98c-5.05,13.26 -12.95,25.31 -23.09,35.27 -8.74,7.07 -19.66,10.93 -30.9,10.93 -0.34,0 -0.69,-0.01 -1.02,-0.01 -0.01,0 -0.02,0 -0.03,0 -13.9,0 -27.22,-5.61 -36.93,-15.54 -9.8,-8.77 -15.45,-21.29 -15.54,-34.44 1.22,-14.65 5.38,-28.96 12.17,-42l336 -721.56c5.11,-13.15 12.84,-25.17 22.68,-35.27 9.12,-7.04 20.32,-10.87 31.84,-10.87 13.71,0 26.88,5.41 36.63,15.06 9.85,8.74 15.51,21.27 15.54,34.44 -0.97,14.59 -4.84,28.9 -11.35,42l0 0.01z"/>
    <path class="fil6" d="M4207.77 15953.09l-340.2 -187.74c-12.98,-6.08 -24.59,-14.82 -34.01,-25.63 -5.49,-7.78 -8.44,-17.09 -8.44,-26.62 0,-0.64 0.02,-1.3 0.04,-1.94 0,-0.24 -0.01,-0.51 -0.01,-0.76 0,-13.89 5.79,-27.17 15.97,-36.62 9.53,-10.18 22.86,-15.96 36.8,-15.96 0.05,0 0.11,0 0.16,0 14.91,1.74 29.28,6.77 42.01,14.71l436.8 243.18c14.01,7.17 22.84,21.61 22.84,37.37 0,15.76 -8.83,30.2 -22.85,37.38l-436.8 243.18c-12.64,8.21 -27.02,13.38 -41.99,15.11 -0.03,0.01 -0.04,0.01 -0.05,0.01 -14.1,0 -27.59,-5.77 -37.34,-15.96 -9.95,-10.19 -15.54,-23.9 -15.54,-38.15 0,-0.02 0,-0.05 0,-0.07 -0.01,-0.48 -0.02,-0.96 -0.02,-1.44 0,-9.68 2.94,-19.15 8.42,-27.12 9.58,-10.52 21.15,-19.1 34.02,-25.2l340.19 -187.73z"/>
   </g>
  </g>
 </g>
</svg>
